<svg width="23" height="28" viewBox="0 0 23 28" fill="none" xmlns="http://www.w3.org/2000/svg">
<path d="M11.151 11.7379C14.121 11.7379 16.5286 9.33411 16.5286 6.36893C16.5286 3.40375 14.121 1 11.151 1C8.18107 1 5.77344 3.40375 5.77344 6.36893C5.77344 9.33411 8.18107 11.7379 11.151 11.7379Z" stroke="#6F6E7C" stroke-width="1.98" stroke-miterlimit="10"/>
<path d="M2.26083 25.7192C1.85526 25.579 1.51019 25.304 1.2833 24.9402C1.0564 24.5764 0.96143 24.1459 1.01425 23.7207C1.2846 21.2263 2.46853 18.9195 4.33863 17.2436C6.20874 15.5676 8.63313 14.6406 11.1461 14.6406C13.6591 14.6406 16.0835 15.5676 17.9536 17.2436C19.8237 18.9195 21.0077 21.2263 21.278 23.7207C21.3249 24.1405 21.2281 24.5637 21.0034 24.9216C20.7787 25.2796 20.4394 25.5511 20.0405 25.692C18.7576 26.128 16.2098 26.6004 11.1507 26.6004C6.09157 26.6004 3.54381 26.1553 2.26083 25.7192Z" stroke="#6F6E7C" stroke-width="1.8" stroke-miterlimit="10"/>
</svg>
